<svg id="visual" viewBox="0 0 900 600" width="900" height="600" xmlns="http://www.w3.org/2000/svg" xmlns:xlink="http://www.w3.org/1999/xlink" version="1.1"><path d="M0 91L13.7 92C27.3 93 54.7 95 82 101C109.3 107 136.7 117 163.8 121C191 125 218 123 245.2 116C272.3 109 299.7 97 327 99C354.3 101 381.7 117 409 116C436.3 115 463.7 97 491 94C518.3 91 545.7 103 573 105C600.3 107 627.7 99 654.8 89C682 79 709 67 736.2 59C763.3 51 790.7 47 818 45C845.3 43 872.7 43 886.3 43L900 43L900 0L886.3 0C872.7 0 845.3 0 818 0C790.7 0 763.3 0 736.2 0C709 0 682 0 654.8 0C627.7 0 600.3 0 573 0C545.7 0 518.3 0 491 0C463.7 0 436.3 0 409 0C381.7 0 354.3 0 327 0C299.7 0 272.3 0 245.2 0C218 0 191 0 163.8 0C136.7 0 109.3 0 82 0C54.7 0 27.3 0 13.7 0L0 0Z" fill="#97b9ea"></path><path d="M0 247L13.7 257C27.3 267 54.7 287 82 300C109.3 313 136.7 319 163.8 324C191 329 218 333 245.2 331C272.3 329 299.7 321 327 328C354.3 335 381.7 357 409 332C436.3 307 463.7 235 491 224C518.3 213 545.7 263 573 282C600.3 301 627.7 289 654.8 284C682 279 709 281 736.2 277C763.3 273 790.7 263 818 242C845.3 221 872.7 189 886.3 173L900 157L900 41L886.3 41C872.7 41 845.3 41 818 43C790.7 45 763.3 49 736.2 57C709 65 682 77 654.8 87C627.7 97 600.3 105 573 103C545.7 101 518.3 89 491 92C463.7 95 436.3 113 409 114C381.7 115 354.3 99 327 97C299.7 95 272.3 107 245.2 114C218 121 191 123 163.8 119C136.7 115 109.3 105 82 99C54.7 93 27.3 91 13.7 90L0 89Z" fill="#80a9e5"></path><path d="M0 457L13.7 449C27.3 441 54.7 425 82 419C109.3 413 136.7 417 163.8 429C191 441 218 461 245.2 458C272.3 455 299.7 429 327 433C354.3 437 381.7 471 409 475C436.3 479 463.7 453 491 435C518.3 417 545.7 407 573 417C600.3 427 627.7 457 654.8 464C682 471 709 455 736.2 447C763.3 439 790.7 439 818 432C845.3 425 872.7 411 886.3 404L900 397L900 155L886.3 171C872.7 187 845.3 219 818 240C790.7 261 763.3 271 736.2 275C709 279 682 277 654.8 282C627.7 287 600.3 299 573 280C545.7 261 518.3 211 491 222C463.7 233 436.3 305 409 330C381.7 355 354.3 333 327 326C299.7 319 272.3 327 245.2 329C218 331 191 327 163.8 322C136.7 317 109.3 311 82 298C54.7 285 27.3 265 13.7 255L0 245Z" fill="#6999e0"></path><path d="M0 499L13.7 493C27.3 487 54.7 475 82 472C109.3 469 136.7 475 163.8 488C191 501 218 521 245.2 520C272.3 519 299.7 497 327 498C354.3 499 381.7 523 409 527C436.3 531 463.7 515 491 499C518.3 483 545.7 467 573 472C600.3 477 627.7 503 654.8 518C682 533 709 537 736.2 532C763.3 527 790.7 513 818 498C845.3 483 872.7 467 886.3 459L900 451L900 395L886.3 402C872.7 409 845.3 423 818 430C790.7 437 763.3 437 736.2 445C709 453 682 469 654.8 462C627.7 455 600.3 425 573 415C545.7 405 518.3 415 491 433C463.7 451 436.3 477 409 473C381.7 469 354.3 435 327 431C299.7 427 272.3 453 245.2 456C218 459 191 439 163.8 427C136.7 415 109.3 411 82 417C54.7 423 27.3 439 13.7 447L0 455Z" fill="#5984c4"></path><path d="M0 601L13.7 601C27.3 601 54.7 601 82 601C109.3 601 136.7 601 163.8 601C191 601 218 601 245.2 601C272.3 601 299.7 601 327 601C354.3 601 381.7 601 409 601C436.3 601 463.7 601 491 601C518.3 601 545.7 601 573 601C600.3 601 627.7 601 654.8 601C682 601 709 601 736.2 601C763.3 601 790.7 601 818 601C845.3 601 872.7 601 886.3 601L900 601L900 449L886.3 457C872.7 465 845.3 481 818 496C790.7 511 763.3 525 736.2 530C709 535 682 531 654.8 516C627.7 501 600.3 475 573 470C545.7 465 518.3 481 491 497C463.7 513 436.3 529 409 525C381.7 521 354.3 497 327 496C299.7 495 272.3 517 245.2 518C218 519 191 499 163.8 486C136.7 473 109.3 467 82 470C54.7 473 27.3 485 13.7 491L0 497Z" fill="#4a6fa9"></path></svg>